HIERARCHY
ROOT Hips
{
  OFFSET -31.5692 30.0904 122.763
  CHANNELS 6 Xposition Yposition Zposition Zrotation Xrotation Yrotation
  JOINT LeftUpLeg
  {
    OFFSET 8.64259 1.95398 -2.38835
    CHANNELS 3 Zrotation Xrotation Yrotation
    JOINT LeftLeg
    {
      OFFSET 43.7702 0 0
      CHANNELS 3 Zrotation Xrotation Yrotation
      JOINT LeftFoot
      {
        OFFSET 40.6238 0 0
        CHANNELS 3 Zrotation Xrotation Yrotation
        JOINT LeftToeBase
        {
          OFFSET 12.7242 0 0
          CHANNELS 3 Zrotation Xrotation Yrotation
          End Site
          {
            OFFSET 0 0 0
          }
        }
      }
    }
  }
  JOINT RightUpLeg
  {
    OFFSET -8.2249 1.95398 -2.59336
    CHANNELS 3 Zrotation Xrotation Yrotation
    JOINT RightLeg
    {
      OFFSET 43.5653 0 0
      CHANNELS 3 Zrotation Xrotation Yrotation
      JOINT RightFoot
      {
        OFFSET 40.6238 0 0
        CHANNELS 3 Zrotation Xrotation Yrotation
        JOINT RightToeBase
        {
          OFFSET 12.7242 0 0
          CHANNELS 3 Zrotation Xrotation Yrotation
          End Site
          {
            OFFSET 0 0 0
          }
        }
      }
    }
  }
  JOINT Spine
  {
    OFFSET 0.165834 0.87714 6.61349
    CHANNELS 3 Zrotation Xrotation Yrotation
    JOINT Spine1
    {
      OFFSET 7.38963 1.71661e-005 0
      CHANNELS 3 Zrotation Xrotation Yrotation
      JOINT Spine2
      {
        OFFSET 11.9445 1.14441e-005 0
        CHANNELS 3 Zrotation Xrotation Yrotation
        JOINT Spine3
        {
          OFFSET 14.7254 4.19617e-005 0
          CHANNELS 3 Zrotation Xrotation Yrotation
          JOINT Spine4
          {
            OFFSET 10.9679 0 0
            CHANNELS 3 Zrotation Xrotation Yrotation
            JOINT RightShoulder
            {
              OFFSET 2.46616 -1.6653 3.69651
              CHANNELS 3 Zrotation Xrotation Yrotation
              JOINT RightArm
              {
                OFFSET 13.0012 0 0
                CHANNELS 3 Zrotation Xrotation Yrotation
                JOINT RightForeArm
                {
                  OFFSET 28.7848 1.62311e-005 0
                  CHANNELS 3 Zrotation Xrotation Yrotation
                  JOINT RightHand
                  {
                    OFFSET 26.5688 1.62095e-005 0
                    CHANNELS 3 Zrotation Xrotation Yrotation
                    End Site
                    {
                      OFFSET 0 0 0
                    }
                  }
                }
              }
            }
            JOINT LeftShoulder
            {
              OFFSET 2.38034 -1.29275 -3.7523
              CHANNELS 3 Zrotation Xrotation Yrotation
              JOINT LeftArm
              {
                OFFSET 16.3182 6.07031e-005 0
                CHANNELS 3 Zrotation Xrotation Yrotation
                JOINT LeftForeArm
                {
                  OFFSET 27.0901 0 0
                  CHANNELS 3 Zrotation Xrotation Yrotation
                  JOINT LeftHand
                  {
                    OFFSET 24.5451 1.51738e-005 0
                    CHANNELS 3 Zrotation Xrotation Yrotation
                    End Site
                    {
                      OFFSET 0 0 0
                    }
                  }
                }
              }
            }
            JOINT Neck
            {
              OFFSET 5.0226 -0.0266342 0
              CHANNELS 3 Zrotation Xrotation Yrotation
              JOINT Head
              {
                OFFSET 6.69364 2.86102e-005 0
                CHANNELS 3 Zrotation Xrotation Yrotation
                End Site
                {
                  OFFSET 0 0 0
                }
              }
            }
          }
        }
      }
    }
  }
}
MOTION
Frames:	7
Frame Time:	0.0416667
-52.2722 83.1533 15.836 -81.7398 7.42829 -105.795 -175.321 8.75341 96.89 -76.7259 25.9245 6.71246 60.6573 -0.783701 2.68416 32.8659 3.31224 -5.092 168.152 24.1567 105.359 -48.8746 -0.153161 10.4754 95.6675 -23.9448 -2.9341 12.0541 3.94154 11.0074 0.487441 7.9646 -88.8523 10.9255 1.50142 2.1415 -0.746236 1.59422 2.07337 -23.2697 0.788635 2.49354 -3.25705 0.78865 2.49354 89.5743 -23.1773 -110.602 34.5085 -16.7112 17.1695 -25.5259 -22.397 -69.0357 -38.5292 6.19298 -30.3143 -88.169 -52.4202 81.9051 8.82642 -2.93779 -15.8236 44.4235 15.4307 -66.6681 35.7957 -17.9518 -46.7459 24.311 -3.18755 11.136 -7.99733 -6.39074 -14.7236 
-56.6824 82.4975 16.084 -81.7576 12.6286 -105.238 -174.535 17.129 97.534 -89.2737 13.6844 5.56664 64.0466 0.405754 4.35585 29.9528 1.87905 -4.28184 169.778 19.6402 106.272 -50.0326 -1.91438 8.15192 97.3107 -26.5352 -3.98427 11.3301 4.31274 10.7316 0.94247 8.17416 -89.2049 10.5115 2.2424 1.37963 -1.15808 2.30091 1.27959 -23.6975 1.72417 1.98978 -3.68482 1.72414 1.98977 90.654 -23.2986 -108.175 30.8382 -13.7535 8.94496 -26.5776 -19.3685 -70.8075 -37.8911 6.11515 -30.0849 -88.234 -55.372 82.3176 7.47061 3.72736 -7.6695 44.273 15.6979 -65.2587 33.9982 -16.5767 -45.8413 24.5929 -4.26475 14.6279 -7.32849 -8.75509 -15.2022 
-61.2252 81.9747 16.3354 -79.8698 19.0052 -104.661 -173.197 27.6854 98.0393 -99.9014 6.00694 5.04476 68.2485 2.90318 7.16376 24.767 -0.00934296 -5.15929 172.23 16.1323 106.786 -50.7095 -2.57792 6.04791 98.9509 -27.1506 -1.97093 16.3587 2.62488 10.0584 1.38912 8.32404 -89.5489 10.2192 2.97384 0.642341 -1.44843 2.99922 0.510709 -24.005 2.6432 1.50694 -3.99234 2.64323 1.50694 91.1935 -22.6352 -107.276 26.5863 -8.86133 -0.709 -31.2874 -17.2887 -74.5066 -37.5014 5.54418 -28.7903 -88.5614 -57.6699 82.2428 3.61816 6.55593 3.5551 44.7243 18.9942 -62.9085 33.849 -16.7859 -46.4298 28.1995 -3.65525 16.653 -7.81094 -9.3711 -14.2397 
-66.2028 81.6326 16.2949 -77.7618 24.5519 -106.419 -172.064 37.7829 95.9879 -106.924 6.2169 4.77145 72.8045 7.13079 10.6126 21.0417 -1.72871 -4.84448 173.74 12.1615 104.515 -50.2574 -3.15844 3.96532 101.942 -28.4319 0.0764165 20.5505 0.927542 10.499 1.69773 8.45274 -89.4961 9.95992 3.61272 0.704311 -1.70611 3.6402 0.544416 -24.2737 3.23389 1.75853 -4.26099 3.23389 1.75853 91.3283 -21.5903 -107.442 24.4709 -5.41843 -9.25139 -32.3588 -15.1992 -76.276 -38.4633 5.62936 -28.2231 -87.8804 -57.8735 83.2147 -2.7246 6.73578 16.4509 46.837 17.4679 -64.3812 34.4647 -16.5799 -45.0986 31.0571 -3.2518 16.9156 -8.11941 -9.45503 -14.4322 
-71.6344 81.9724 15.7434 -75.5257 28.2045 -108.817 -171.725 47.1128 93.3617 -108.5 7.47356 4.52104 76.4035 10.2389 10.9315 24.1815 -0.411649 -4.7597 173.67 7.69434 100.832 -47.5041 -7.17788 2.53877 101.3 -28.6934 -0.717681 22.8707 0.347138 9.38101 1.96442 8.4686 -89.2811 9.91997 4.24162 1.08187 -1.74435 4.28514 0.893813 -24.3211 3.72022 2.30807 -4.30843 3.72023 2.30808 90.7611 -20.2507 -109.38 23.0658 3.23873 -15.0988 -31.0476 -11.7304 -77.967 -35.2526 6.19704 -31.3778 -85.9245 -57.2124 85.829 -8.94643 6.62615 27.6404 48.0315 14.4109 -65.4467 34.0828 -16.7755 -46.0678 33.1188 -4.07329 15.9486 -9.27747 -9.99373 -14.0141 
-77.8138 82.9325 14.2952 -73.6519 30.7772 -111.599 -170.734 54.0761 89.7855 -104.754 7.27961 3.90786 78.9561 11.9067 9.34525 26.4516 0.25208 -3.85858 172.959 2.59132 96.1219 -42.868 -11.2754 1.06201 97.4757 -26.2706 -1.48758 26.8419 -0.974966 8.67524 2.2935 8.44692 -88.9954 9.94824 5.02732 1.58306 -1.71366 5.0921 1.35976 -24.3024 4.31894 3.02285 -4.28978 4.31896 3.02285 90.6081 -18.8439 -110.463 21.6681 7.94573 -19.1832 -31.5068 -10.5973 -79.3162 -36.2818 6.50892 -31.4186 -84.0081 -56.3409 88.4124 -13.8611 8.63249 36.0367 46.8492 10.8702 -66.6797 33.6294 -16.8776 -47.0224 33.7125 -5.42238 15.454 -9.60674 -11.0745 -14.2688 
-84.5182 84.6247 11.6776 -72.7086 32.8261 -113.916 -169.764 57.4384 86.9123 -96.4874 6.41603 2.80139 81.5269 12.8209 5.87521 27.4057 0.468262 -3.27893 172.577 -3.17303 92.1655 -36.6276 -12.5016 -1.16267 90.2982 -20.6578 -1.2845 31.275 -3.32334 12.9364 2.75111 8.43677 -88.7531 9.95172 6.04933 1.98044 -1.7062 6.1306 1.7114 -24.3174 5.17419 3.71039 -4.30478 5.17421 3.71039 91.2582 -17.0925 -109.835 22.1129 10.6438 -20.8859 -31.7856 -9.49128 -80.9421 -38.5201 7.22168 -31.8265 -83.6097 -54.9102 88.8363 -18.352 10.4534 41.8633 46.4943 9.94747 -65.3218 33.9446 -17.6301 -48.4284 32.6542 -8.02614 15.453 -8.36514 -13.5477 -13.7364 
